<svg xmlns="http://www.w3.org/2000/svg" xmlns:xlink="http://www.w3.org/1999/xlink" viewBox="0 0 1366 768"><defs><style>.cls-1{isolation:isolate;}.cls-2{fill:#41d4e8;}.cls-3{fill:#67ebfc;}.cls-4{fill:#88e5fc;}.cls-5{fill:none;}.cls-17,.cls-6{opacity:0.1;}.cls-7{fill:#417ce8;}.cls-8{fill:#3463ba;opacity:0.68;}.cls-42,.cls-9{fill:#fff;}.cls-10{fill:url(#linear-gradient);}.cls-11{fill:#ffc763;}.cls-12{fill:#54d6bd;}.cls-13{fill:#4758ff;}.cls-14{fill:#c8d2ed;}.cls-15{fill:#e6e9f2;}.cls-16{mix-blend-mode:color-burn;opacity:0.63;fill:url(#linear-gradient-2);}.cls-18{opacity:0;}.cls-19,.cls-20,.cls-21,.cls-22,.cls-23,.cls-24,.cls-25,.cls-26,.cls-27,.cls-28,.cls-29,.cls-30,.cls-31,.cls-32,.cls-33,.cls-34,.cls-35,.cls-36,.cls-37,.cls-38,.cls-39,.cls-40{mix-blend-mode:multiply;}.cls-19{opacity:0.05;}.cls-20{opacity:0.1;}.cls-21{opacity:0.14;}.cls-22{opacity:0.19;}.cls-23{opacity:0.24;}.cls-24{opacity:0.29;}.cls-25{opacity:0.33;}.cls-26{opacity:0.38;}.cls-27{opacity:0.43;}.cls-28{opacity:0.48;}.cls-29{opacity:0.52;}.cls-30{opacity:0.57;}.cls-31{opacity:0.62;}.cls-32{opacity:0.67;}.cls-33{opacity:0.71;}.cls-34{opacity:0.76;}.cls-35{opacity:0.81;}.cls-36{opacity:0.86;}.cls-37{opacity:0.9;}.cls-38{opacity:0.95;}.cls-40{fill:#d3d3e3;}.cls-41{fill:#ebf1fe;}.cls-42{font-size:36px;font-family:FuturaPT-Book, Futura PT;}.cls-43{font-size:24px;}</style><linearGradient id="linear-gradient" x1="748.52" y1="305.44" x2="758.67" y2="305.44" gradientUnits="userSpaceOnUse"><stop offset="0" stop-color="#ff73a4"/><stop offset="1" stop-color="#ff4cb6"/></linearGradient><linearGradient id="linear-gradient-2" x1="1164.2" y1="461.44" x2="1164.2" y2="481.54" gradientUnits="userSpaceOnUse"><stop offset="0" stop-color="#b3b3b3"/><stop offset="1" stop-color="#fefefe"/></linearGradient></defs><g class="cls-1"><g id="Layer_1" data-name="Layer 1"><rect class="cls-2" y="1" width="1363" height="769"/><rect class="cls-3" y="618" width="1366" height="150"/><path class="cls-4" d="M1210.89,489.33l-.52-.12-.75,0v-.09h-.16l-.21-.15a3.72,3.72,0,0,1-1.4-.83,1.64,1.64,0,0,1-.2-.22h0l0,0a1.13,1.13,0,0,1-.19-.27h-.22v-.06h0c0-.14,0-.27,0-.39l-.12,0,.14-.63,0-.05,0,0,.1-4.73,1.16,2.64h1.93l0-.08,1.08.1.73,0a1.18,1.18,0,0,1,1.16.57,3.81,3.81,0,0,1,.71.52,1.85,1.85,0,0,1,.42.58h.19l0,1a.09.09,0,0,1,0,.05v.05l0,.22,0,0v.29h-.2a1.47,1.47,0,0,1-.38.47,3.28,3.28,0,0,1-.85.6c-.13.35-.54.46-1.14.5v0h-.68l-.14,0-.28,0Zm-1.78-.49h0Zm1.7-1.13h.38l.16,0h.09a2.72,2.72,0,0,0,.34-.11,1.36,1.36,0,0,0,.45-.31.48.48,0,0,0,.15-.2v0l0-.06v0a.25.25,0,0,1,0-.07v-.19s0-.11,0-.13l0,0a.49.49,0,0,0-.14-.22,1.73,1.73,0,0,0-.49-.34l-.32-.1h-.09l-.17,0h-.5l-.25.1-.11,0a1.91,1.91,0,0,0-.56.33l0,0-.09.12-.05.1a.24.24,0,0,0,0,.08.64.64,0,0,1,0,.07v.18l0,.09v0s0,0,0,.07a.93.93,0,0,1,.05.1l.09.11h0l0,0a1.72,1.72,0,0,0,.56.33l.11,0,.25.1h.13Zm.61,0h0Zm0,0Zm-1.76-.45Zm1.76-1.36Zm0,0Z"/><path class="cls-4" d="M1210.13,491.1l-.76-2.9-1,0,0-.74a.64.64,0,0,1,.35-.53l-3-.83,3.85-.44v-.3h1l.05-.16,1,0,1,0,0,.17c.49.09.73.28.74.68l0,.74h0v.37l0,.63-1.44.15a1.2,1.2,0,0,1-.6.21Z"/><rect class="cls-5" x="479" y="148.42" width="1401" height="621.58"/><ellipse class="cls-6" cx="960" cy="662.28" rx="213.89" ry="28.35"/><rect class="cls-7" x="888.52" y="580.88" width="149.32" height="65.23"/><rect class="cls-8" x="888.52" y="640.12" width="149.32" height="15.46"/><rect class="cls-8" x="888.52" y="580.88" width="149.32" height="26.25"/><rect class="cls-7" x="868.85" y="646.14" width="188.65" height="18.3" rx="6.2"/><path class="cls-7" d="M1189,250.88a34.21,34.21,0,0,1,34.1,34.1V562.75a34.21,34.21,0,0,1-34.1,34.1H733.79a34.2,34.2,0,0,1-34.1-34.1V285a34.2,34.2,0,0,1,34.1-34.1Z"/><path class="cls-9" d="M1169.48,273.65a27.69,27.69,0,0,1,27.61,27.61V544.93a27.69,27.69,0,0,1-27.61,27.61H753.64A27.69,27.69,0,0,1,726,544.93V301.25a27.68,27.68,0,0,1,27.61-27.6Z"/><path class="cls-10" d="M758.67,305.44a5.08,5.08,0,1,1-5.07-5.07A5.07,5.07,0,0,1,758.67,305.44Z"/><path class="cls-11" d="M772.05,305.44a5.08,5.08,0,1,1-5.08-5.07A5.08,5.08,0,0,1,772.05,305.44Z"/><path class="cls-12" d="M785.22,305.44a5.08,5.08,0,1,1-5.07-5.07A5.07,5.07,0,0,1,785.22,305.44Z"/><path class="cls-13" d="M1161.6,291.33l-.86,3.54a11.28,11.28,0,0,0-1.81.74l-3-1.81a.88.88,0,0,0-1.08.13l-2.51,2.51a.87.87,0,0,0-.12,1.08l1.8,3a10.82,10.82,0,0,0-.74,1.8l-3.53.85a.92.92,0,0,0-.68.87v3.54a.92.92,0,0,0,.68.87l3.53.85a10.82,10.82,0,0,0,.74,1.8l-1.8,3a.87.87,0,0,0,.12,1.08l2.51,2.51a.88.88,0,0,0,1.08.13l3-1.81a12.34,12.34,0,0,0,1.81.75l.86,3.41a.88.88,0,0,0,.85.67H1166a.87.87,0,0,0,.85-.67l.87-3.41a12.34,12.34,0,0,0,1.81-.75l3,1.81a.87.87,0,0,0,1.08-.13l2.52-2.51a.89.89,0,0,0,.12-1.08l-1.8-3a11.74,11.74,0,0,0,.74-1.8l3.42-.85a.91.91,0,0,0,.67-.87v-3.54a.91.91,0,0,0-.67-.87l-3.42-.85a11.74,11.74,0,0,0-.74-1.8l1.8-3a.89.89,0,0,0-.12-1.08l-2.52-2.51a.87.87,0,0,0-1.08-.13l-3,1.81a11.28,11.28,0,0,0-1.81-.74l-.87-3.54a.87.87,0,0,0-.85-.67h-3.54A.88.88,0,0,0,1161.6,291.33Zm7.05,14.49a4.43,4.43,0,1,1-4.43-4.42A4.42,4.42,0,0,1,1168.65,305.82Z"/><g id="Search"><path class="cls-13" d="M813.55,304.49a2.25,2.25,0,0,0-.8-.54,2.88,2.88,0,0,0-1.13-.21,2.17,2.17,0,0,0-1.36.35,1.21,1.21,0,0,0-.43,1,1,1,0,0,0,.12.52.9.9,0,0,0,.35.35,2.33,2.33,0,0,0,.61.26c.25.07.54.15.88.22a9.31,9.31,0,0,1,1,.27,3.06,3.06,0,0,1,.77.37,1.54,1.54,0,0,1,.48.54,1.61,1.61,0,0,1,.17.8,1.74,1.74,0,0,1-.19.84,1.56,1.56,0,0,1-.52.59,2.5,2.5,0,0,1-.81.36,4.62,4.62,0,0,1-1,.11,4.23,4.23,0,0,1-2.83-1l.35-.57a2.44,2.44,0,0,0,.45.38,3.29,3.29,0,0,0,.59.31,3.48,3.48,0,0,0,.69.21,3.79,3.79,0,0,0,.77.08,2.48,2.48,0,0,0,1.32-.31,1,1,0,0,0,.47-.92,1.07,1.07,0,0,0-.14-.55,1.22,1.22,0,0,0-.4-.38,2.9,2.9,0,0,0-.66-.29c-.27-.08-.58-.15-.93-.23s-.69-.18-1-.27a2.41,2.41,0,0,1-.7-.35,1.39,1.39,0,0,1-.44-.5,1.74,1.74,0,0,1-.14-.72,2.05,2.05,0,0,1,.18-.87,1.78,1.78,0,0,1,.52-.63,2.49,2.49,0,0,1,.8-.39,3.72,3.72,0,0,1,2.27.08,3.24,3.24,0,0,1,1,.6Z"/><path class="cls-13" d="M817.55,310.32a2.46,2.46,0,0,1-1.86-.8,2.85,2.85,0,0,1-.54-2.93,2.63,2.63,0,0,1,.54-.84,2.59,2.59,0,0,1,.82-.58,2.63,2.63,0,0,1,2.06,0,2.54,2.54,0,0,1,.81.58,2.77,2.77,0,0,1,.53.85,2.63,2.63,0,0,1,.19,1v.16a.31.31,0,0,1,0,.11h-4.43a2.42,2.42,0,0,0,.19.77,2,2,0,0,0,.43.61,2,2,0,0,0,.59.4,1.7,1.7,0,0,0,.71.14,2.05,2.05,0,0,0,.49-.06,2.11,2.11,0,0,0,.46-.19,1.79,1.79,0,0,0,.38-.3,1.22,1.22,0,0,0,.26-.38l.58.16a1.61,1.61,0,0,1-.34.52,2.24,2.24,0,0,1-.5.41,3.08,3.08,0,0,1-.64.27A2.84,2.84,0,0,1,817.55,310.32Zm1.9-3a2.13,2.13,0,0,0-.19-.76,2.26,2.26,0,0,0-.42-.59,1.88,1.88,0,0,0-.58-.38,1.7,1.7,0,0,0-.71-.14,1.78,1.78,0,0,0-.72.14,1.74,1.74,0,0,0-1,1,2.07,2.07,0,0,0-.19.75Z"/><path class="cls-13" d="M822.44,310.32a1.91,1.91,0,0,1-.68-.12,1.68,1.68,0,0,1-.54-.35,1.46,1.46,0,0,1-.37-.51,1.61,1.61,0,0,1-.13-.63,1.33,1.33,0,0,1,.16-.62,1.64,1.64,0,0,1,.45-.5,2,2,0,0,1,.68-.32,3.07,3.07,0,0,1,.88-.12,5.52,5.52,0,0,1,.8.07,4.53,4.53,0,0,1,.73.2V307a1.5,1.5,0,0,0-.39-1.09,1.42,1.42,0,0,0-1.07-.4,2.21,2.21,0,0,0-.82.16,3.45,3.45,0,0,0-.84.45l-.24-.44a3.51,3.51,0,0,1,2-.68,2.1,2.1,0,0,1,1.53.55,2,2,0,0,1,.55,1.51v2.33c0,.18.08.28.25.28v.59l-.26,0a.57.57,0,0,1-.4-.13.43.43,0,0,1-.15-.35l0-.41a2.32,2.32,0,0,1-.9.71A2.7,2.7,0,0,1,822.44,310.32Zm.16-.52a2.4,2.4,0,0,0,1-.19,1.65,1.65,0,0,0,.67-.53.59.59,0,0,0,.13-.19.53.53,0,0,0,0-.2v-.84a4.29,4.29,0,0,0-.7-.2,3.71,3.71,0,0,0-.74-.07,2,2,0,0,0-1.16.3.9.9,0,0,0-.45.78,1.13,1.13,0,0,0,.09.45,1.19,1.19,0,0,0,.26.36,1.3,1.3,0,0,0,.39.25A1.36,1.36,0,0,0,822.6,309.8Z"/><path class="cls-13" d="M829.13,305.65a2.07,2.07,0,0,0-1.19.37,1.85,1.85,0,0,0-.71,1v3.21h-.68v-5.17h.64v1.24a2.3,2.3,0,0,1,.77-.93,1.75,1.75,0,0,1,1-.34h.13Z"/><path class="cls-13" d="M829.42,307.62a2.73,2.73,0,0,1,.19-1,2.4,2.4,0,0,1,.53-.85,2.52,2.52,0,0,1,.82-.57,2.59,2.59,0,0,1,1-.21,2.41,2.41,0,0,1,1.28.33,2.15,2.15,0,0,1,.82.9l-.65.21a1.65,1.65,0,0,0-.61-.62,1.81,1.81,0,0,0-1.61-.06,1.84,1.84,0,0,0-.6.43,2,2,0,0,0-.39.65,2.18,2.18,0,0,0-.15.82,2.26,2.26,0,0,0,.56,1.5,2,2,0,0,0,.6.44,1.66,1.66,0,0,0,.73.17,2,2,0,0,0,.49-.07,1.82,1.82,0,0,0,.45-.2,1.45,1.45,0,0,0,.36-.28,1,1,0,0,0,.21-.34l.66.2a1.49,1.49,0,0,1-.31.51,2.43,2.43,0,0,1-.49.41,3,3,0,0,1-.63.27,2.82,2.82,0,0,1-.71.09,2.5,2.5,0,0,1-1.87-.8,2.74,2.74,0,0,1-.73-1.9Z"/><path class="cls-13" d="M839.57,310.22h-.67v-2.89a2.34,2.34,0,0,0-.3-1.32,1,1,0,0,0-.89-.43,1.44,1.44,0,0,0-.57.11,2.17,2.17,0,0,0-.53.31,2.45,2.45,0,0,0-.44.47,2,2,0,0,0-.27.59v3.16h-.67V303h.67v3.24a2.36,2.36,0,0,1,.85-.92,2.19,2.19,0,0,1,1.19-.34,1.7,1.7,0,0,1,.75.16,1.5,1.5,0,0,1,.51.46,2.07,2.07,0,0,1,.28.71,4.16,4.16,0,0,1,.09.9Z"/><path class="cls-13" d="M1113.61,310.28l-3.09-3.09a5.13,5.13,0,0,0,.8-2.77,5.23,5.23,0,1,0-2.13,4.2l3,3a1,1,0,0,0,1.38,0A1,1,0,0,0,1113.61,310.28Zm-7.5-2.6a3.26,3.26,0,1,1,3.26-3.26A3.27,3.27,0,0,1,1106.11,307.68Z"/><path class="cls-13" d="M1113.24,317.94H810c-7.07,0-12.83-5.47-12.83-12.19s5.76-12.18,12.83-12.18h303.23c7.07,0,12.82,5.46,12.82,12.18S1120.31,317.94,1113.24,317.94ZM810,294.39c-6.62,0-12,5.1-12,11.36s5.38,11.36,12,11.36h303.23c6.61,0,12-5.09,12-11.36s-5.38-11.36-12-11.36Z"/></g><rect class="cls-2" x="796.11" y="337.98" width="212.96" height="214.06" rx="8.27"/><g id="Block_down" data-name="Block down"><g id="Block_down-2" data-name="Block down"><rect class="cls-9" x="1028.91" y="455.39" width="98.38" height="98.38" rx="8.27"/><rect class="cls-14" x="1026.42" y="452.91" width="98.38" height="98.38" rx="8.27"/><rect class="cls-15" x="1028.91" y="455.39" width="95.9" height="95.9" rx="8.27"/></g><g id="_" data-name="+"><path class="cls-14" d="M1084.65,502.17h-5.37v-5.38a2,2,0,1,0-4,0v5.38h-5.38a2,2,0,1,0,0,4h5.38v5.37a2,2,0,1,0,4,0v-5.37h5.37a2,2,0,1,0,0-4Z"/><path class="cls-14" d="M1077.27,526.08a21.91,21.91,0,1,1,21.91-21.91A21.93,21.93,0,0,1,1077.27,526.08Zm0-40.5a18.6,18.6,0,1,0,18.6,18.59A18.61,18.61,0,0,0,1077.27,485.58Z"/><path class="cls-9" d="M1083.82,500.51h-5.37v-5.37a2,2,0,1,0-4,0v5.37h-5.37a2,2,0,1,0,0,4h5.37v5.38a2,2,0,1,0,4,0v-5.38h5.37a2,2,0,1,0,0-4Z"/><path class="cls-9" d="M1076.44,524.42a21.91,21.91,0,1,1,21.91-21.9A21.93,21.93,0,0,1,1076.44,524.42Zm0-40.5a18.6,18.6,0,1,0,18.6,18.6A18.61,18.61,0,0,0,1076.44,483.92Z"/></g></g><g id="Block_down-3" data-name="Block down"><g id="Block_down-4" data-name="Block down"><rect class="cls-9" x="1028.91" y="337.04" width="98.38" height="98.38" rx="8.27"/><rect class="cls-14" x="1026.42" y="334.56" width="98.38" height="98.38" rx="8.27"/><rect class="cls-15" x="1028.91" y="337.04" width="95.9" height="95.9" rx="8.27"/></g><g id="_2" data-name="+"><path class="cls-14" d="M1084.65,383.82h-5.37v-5.38a2,2,0,1,0-4,0v5.38h-5.38a2,2,0,1,0,0,4h5.38v5.38a2,2,0,1,0,4,0v-5.38h5.37a2,2,0,1,0,0-4Z"/><path class="cls-14" d="M1077.27,407.73a21.91,21.91,0,1,1,21.91-21.91A21.93,21.93,0,0,1,1077.27,407.73Zm0-40.51a18.6,18.6,0,1,0,18.6,18.6A18.62,18.62,0,0,0,1077.27,367.22Z"/><path class="cls-9" d="M1083.82,382.16h-5.37v-5.37a2,2,0,1,0-4,0v5.37h-5.37a2,2,0,1,0,0,4h5.37v5.37a2,2,0,1,0,4,0v-5.37h5.37a2,2,0,1,0,0-4Z"/><path class="cls-9" d="M1076.44,406.07a21.91,21.91,0,1,1,21.91-21.9A21.93,21.93,0,0,1,1076.44,406.07Zm0-40.5a18.6,18.6,0,1,0,18.6,18.6A18.61,18.61,0,0,0,1076.44,365.57Z"/></g></g><rect class="cls-16" x="1115.4" y="452.62" width="97.6" height="96.13" rx="8.27"/><g class="cls-17"><rect class="cls-18" x="967.28" y="383.25" width="130.02" height="130.01" rx="22.14"/><rect class="cls-19" x="968.15" y="383.96" width="128.13" height="128.13" rx="21.95"/><rect class="cls-20" x="969.02" y="384.68" width="126.24" height="126.24" rx="21.76"/><rect class="cls-21" x="969.88" y="385.39" width="124.36" height="124.36" rx="21.56"/><rect class="cls-22" x="970.75" y="386.11" width="122.47" height="122.47" rx="21.37"/><rect class="cls-23" x="971.62" y="386.82" width="120.59" height="120.59" rx="21.18"/><path class="cls-24" d="M993.48,387.53h76.73a21,21,0,0,1,21,21v76.73a21,21,0,0,1-21,21H993.48a21,21,0,0,1-21-21V408.52A21,21,0,0,1,993.48,387.53Z"/><rect class="cls-25" x="973.36" y="388.25" width="116.82" height="116.82" rx="20.79"/><rect class="cls-26" x="974.23" y="388.96" width="114.93" height="114.93" rx="20.6"/><rect class="cls-27" x="975.1" y="389.68" width="113.05" height="113.04" rx="20.41"/><rect class="cls-28" x="975.97" y="390.39" width="111.16" height="111.16" rx="20.21"/><rect class="cls-29" x="976.83" y="391.11" width="109.27" height="109.27" rx="20.02"/><rect class="cls-30" x="977.7" y="391.82" width="107.39" height="107.39" rx="19.83"/><rect class="cls-31" x="978.57" y="392.54" width="105.5" height="105.5" rx="19.63"/><rect class="cls-32" x="979.44" y="393.25" width="103.62" height="103.62" rx="19.44"/><rect class="cls-33" x="980.31" y="393.96" width="101.73" height="101.73" rx="19.25"/><rect class="cls-34" x="981.18" y="394.68" width="99.85" height="99.85" rx="19.05"/><rect class="cls-35" x="982.05" y="395.39" width="97.96" height="97.96" rx="18.86"/><rect class="cls-36" x="982.92" y="396.11" width="96.08" height="96.07" rx="18.67"/><rect class="cls-37" x="983.79" y="396.82" width="94.19" height="94.19" rx="18.48"/><rect class="cls-38" x="984.65" y="397.54" width="92.3" height="92.3" rx="18.28"/><rect class="cls-39" x="985.52" y="398.25" width="90.42" height="90.42" rx="18.09"/></g><rect class="cls-13" x="959.95" y="373.46" width="104.29" height="102.76" rx="8.62"/><rect class="cls-7" x="960.78" y="374.28" width="97.6" height="96.13" rx="8.27"/><g id="Block_down-5" data-name="Block down"><path class="cls-40" d="M1034.42,429.45l-11.51,12.19a1.85,1.85,0,0,1-2.63.08,1.87,1.87,0,0,1-.08-2.64l10.3-10.91-10.3-10.91a1.86,1.86,0,1,1,2.71-2.56l11.51,12.19A1.86,1.86,0,0,1,1034.42,429.45Zm-34.52,9.63-10.29-10.91,10.29-10.91a1.86,1.86,0,1,0-2.71-2.56l-11.51,12.19a1.88,1.88,0,0,0,0,2.56l11.51,12.19a1.86,1.86,0,1,0,2.71-2.56Zm13.17-30.67a1.88,1.88,0,0,0-2.13,1.57l-5.47,35.82a1.86,1.86,0,0,0,1.56,2.12,1.43,1.43,0,0,0,.29,0,1.88,1.88,0,0,0,1.84-1.59l5.47-35.82A1.87,1.87,0,0,0,1013.07,408.41Z"/><path class="cls-41" d="M1033.46,427.54,1022,439.73a1.86,1.86,0,1,1-2.71-2.56l10.29-10.91-10.29-10.91a1.86,1.86,0,0,1,2.71-2.56l11.5,12.19A1.86,1.86,0,0,1,1033.46,427.54ZM999,437.17l-10.3-10.91L999,415.35a1.86,1.86,0,1,0-2.71-2.56L984.73,425a1.86,1.86,0,0,0,0,2.56l11.51,12.19a1.85,1.85,0,0,0,2.63.08A1.87,1.87,0,0,0,999,437.17Zm13.16-30.66a1.86,1.86,0,0,0-2.12,1.56l-5.47,35.82a1.87,1.87,0,0,0,1.56,2.13l.28,0a1.88,1.88,0,0,0,1.85-1.59l5.47-35.82A1.86,1.86,0,0,0,1012.11,406.51Z"/></g><path class="cls-9" d="M972.61,389.29a3,3,0,1,1,3-3A3,3,0,0,1,972.61,389.29Zm0-5.26a2.22,2.22,0,1,0,2.22,2.22A2.21,2.21,0,0,0,972.61,384Z"/><path class="cls-9" d="M973.66,386.25a1.06,1.06,0,0,1-2.11,0,1.06,1.06,0,1,1,2.11,0Z"/><path class="cls-9" d="M979.08,386.72a2.87,2.87,0,0,1,.16-1,2.73,2.73,0,0,1,.49-.84,2.53,2.53,0,0,1,.79-.61,2.29,2.29,0,0,1,1.06-.23,2.12,2.12,0,0,1,1.21.32,1.85,1.85,0,0,1,.74.83l-.4.25a1.82,1.82,0,0,0-.31-.44,2.46,2.46,0,0,0-.39-.29,2.32,2.32,0,0,0-.44-.16,2.18,2.18,0,0,0-.44,0,1.79,1.79,0,0,0-.84.19,2.12,2.12,0,0,0-.61.5,2.31,2.31,0,0,0-.38.71,2.66,2.66,0,0,0-.12.79,2.4,2.4,0,0,0,.15.84,2.19,2.19,0,0,0,.42.71,1.85,1.85,0,0,0,.62.49,1.62,1.62,0,0,0,.79.19,1.74,1.74,0,0,0,.45-.06,2,2,0,0,0,.46-.18,1.68,1.68,0,0,0,.4-.3,1.52,1.52,0,0,0,.32-.45l.43.23a1.57,1.57,0,0,1-.36.52,2.46,2.46,0,0,1-.51.39,2.57,2.57,0,0,1-.6.23,2.27,2.27,0,0,1-.62.09,2.08,2.08,0,0,1-1-.24,2.77,2.77,0,0,1-.78-.62,2.93,2.93,0,0,1-.51-.87A2.89,2.89,0,0,1,979.08,386.72Z"/><path class="cls-9" d="M986.08,389.48a1.93,1.93,0,0,1-.77-.16,2,2,0,0,1-.61-.44,2.1,2.1,0,0,1-.4-.64,2.19,2.19,0,0,1-.14-.77,2,2,0,0,1,.15-.77,1.92,1.92,0,0,1,.4-.64,2,2,0,0,1,.6-.44,1.8,1.8,0,0,1,.77-.16,1.77,1.77,0,0,1,.77.16,2,2,0,0,1,.61.44,1.92,1.92,0,0,1,.4.64,2,2,0,0,1,.15.77,2.19,2.19,0,0,1-.14.77,2.1,2.1,0,0,1-.4.64,2.07,2.07,0,0,1-.61.44A2,2,0,0,1,986.08,389.48Zm-1.41-2a1.69,1.69,0,0,0,.42,1.1,1.32,1.32,0,0,0,1.54.33,1.67,1.67,0,0,0,.45-.34,1.54,1.54,0,0,0,.3-.49,1.58,1.58,0,0,0,.12-.61,1.54,1.54,0,0,0-.12-.61,1.48,1.48,0,0,0-.3-.5,1.45,1.45,0,0,0-.45-.33,1.17,1.17,0,0,0-.55-.13,1.13,1.13,0,0,0-.54.13,1.45,1.45,0,0,0-.45.33,1.63,1.63,0,0,0-.3.51A1.54,1.54,0,0,0,984.67,387.48Z"/><path class="cls-9" d="M990.45,389.48a1.64,1.64,0,0,1-.74-.17,1.86,1.86,0,0,1-.59-.44,2.2,2.2,0,0,1-.39-.64,2.13,2.13,0,0,1-.13-.76,2.19,2.19,0,0,1,.13-.77,2,2,0,0,1,.37-.65,1.68,1.68,0,0,1,.56-.43,1.65,1.65,0,0,1,1.58.09,2.08,2.08,0,0,1,.6.62V384h.5v4.78c0,.14.06.2.18.2v.45a.62.62,0,0,1-.18,0,.44.44,0,0,1-.31-.11.37.37,0,0,1-.14-.28v-.38a1.7,1.7,0,0,1-.62.6A1.64,1.64,0,0,1,990.45,389.48Zm.11-.45a1.19,1.19,0,0,0,.4-.08,1.36,1.36,0,0,0,.4-.2,1.57,1.57,0,0,0,.32-.31.87.87,0,0,0,.16-.37v-1.2a1.63,1.63,0,0,0-.22-.38,1.52,1.52,0,0,0-.32-.3,1.71,1.71,0,0,0-.4-.21,1.14,1.14,0,0,0-.4-.08,1.2,1.2,0,0,0-.57.14,1.48,1.48,0,0,0-.44.35,1.74,1.74,0,0,0-.28.5,1.9,1.9,0,0,0-.09.58,1.73,1.73,0,0,0,.11.6,1.61,1.61,0,0,0,.3.49,1.38,1.38,0,0,0,.46.34A1.25,1.25,0,0,0,990.56,389Z"/><path class="cls-9" d="M993.49,384.71V384h.5v.74Zm0,4.69v-3.88h.5v3.88Z"/><path class="cls-9" d="M998.37,389.4h-.5v-2.17a1.84,1.84,0,0,0-.21-1,.7.7,0,0,0-.63-.31,1.11,1.11,0,0,0-.44.08,1.44,1.44,0,0,0-.42.23,2.26,2.26,0,0,0-.34.35,1.32,1.32,0,0,0-.21.45v2.37h-.51v-3.88h.46v.88a1.9,1.9,0,0,1,1.65-.94,1.27,1.27,0,0,1,.54.11,1,1,0,0,1,.36.34,1.5,1.5,0,0,1,.19.53,3.69,3.69,0,0,1,.06.69Z"/><path class="cls-9" d="M1001,389.45a1.64,1.64,0,0,1-.74-.16,1.93,1.93,0,0,1-.57-.45,2,2,0,0,1-.38-.63,2.3,2.3,0,0,1-.13-.74,2.27,2.27,0,0,1,.13-.77,2,2,0,0,1,.37-.64,1.89,1.89,0,0,1,.57-.44,1.6,1.6,0,0,1,.73-.16,1.51,1.51,0,0,1,.87.25,2.29,2.29,0,0,1,.62.62v-.81h.46v3.9a1.65,1.65,0,0,1-.16.71,1.47,1.47,0,0,1-.41.51,1.73,1.73,0,0,1-.6.32,2.52,2.52,0,0,1-.73.1,2.11,2.11,0,0,1-1.08-.24,1.87,1.87,0,0,1-.67-.64l.32-.24a1.28,1.28,0,0,0,.61.54,1.86,1.86,0,0,0,.82.18,1.84,1.84,0,0,0,.53-.08,1.37,1.37,0,0,0,.45-.23,1.19,1.19,0,0,0,.3-.39,1.3,1.3,0,0,0,.11-.54v-.77a1.65,1.65,0,0,1-.61.59A1.69,1.69,0,0,1,1001,389.45Zm.14-.42a1.36,1.36,0,0,0,.44-.08,1.87,1.87,0,0,0,.39-.22,1.41,1.41,0,0,0,.29-.31,1.09,1.09,0,0,0,.16-.35v-1.2a1.87,1.87,0,0,0-.22-.39,1.79,1.79,0,0,0-.32-.3,1.44,1.44,0,0,0-.39-.2,1.15,1.15,0,0,0-.41-.08,1.28,1.28,0,0,0-.59.14,1.36,1.36,0,0,0-.43.36,1.56,1.56,0,0,0-.27.51,1.9,1.9,0,0,0-.1.57,1.69,1.69,0,0,0,.42,1.09,1.89,1.89,0,0,0,.46.34A1.35,1.35,0,0,0,1001.15,389Z"/><rect class="cls-7" x="615.65" y="-635.35" width="132.4" height="1396.29" transform="translate(744.65 -619.05) rotate(90)"/><polygon class="cls-9" points="211.8 99.41 189.58 49.76 185.42 40.48 180.88 50.14 185.06 59.77 198.71 91.15 189.23 90.97 190.45 88.81 186.27 79.21 175.91 99.55 181 99.54 181 99.55 208.28 99.44 208.27 99.41 211.8 99.41"/><polygon class="cls-9" points="194.33 39.23 199.88 51.97 204.58 42.63 194.75 20.64 185.42 40.48 189.58 49.76 194.33 39.23"/><polygon class="cls-9" points="208.82 52.1 204.05 61.57 220.5 99.41 230 99.41 208.82 52.1"/><polygon class="cls-9" points="177.11 58.14 157.71 99.41 167.17 99.41 181.37 67.94 177.11 58.14"/><text class="cls-42" transform="translate(611.58 77.62)"><tspan xml:space="preserve">Home     Project     Skills     About     Contact</tspan></text><text class="cls-42" transform="translate(145 343.69)">Hello my name is Alaa Soleiman<tspan x="0" y="36">Im </tspan><tspan class="cls-7" x="41.9" y="36">web developer</tspan><tspan x="253.18" y="36"> </tspan><tspan class="cls-43"><tspan x="0" y="72">with extensive experience for over 10 years. </tspan><tspan x="0" y="108">My expertise is to create is to create and website design, </tspan><tspan x="0" y="144">graphic design, and many more …</tspan></tspan></text></g></g></svg>