<svg width="524" height="440" viewBox="0 0 524 440" fill="none" xmlns="http://www.w3.org/2000/svg">
    <path d="M511.2 238.45L510.68 238.33H509.93V238.24H509.81L509.6 238.09C509.078 237.92 508.6 237.637 508.2 237.26C508.127 237.193 508.06 237.119 508 237.04V237.04C507.924 236.96 507.86 236.869 507.81 236.77H507.59V236.71C507.59 236.57 507.59 236.44 507.59 236.32H507.47L507.61 235.69V235.64L507.71 230.91L508.87 233.55H510.8V233.47L511.88 233.57H512.61C512.838 233.542 513.069 233.581 513.275 233.682C513.481 233.783 513.653 233.943 513.77 234.14C514.026 234.285 514.264 234.46 514.48 234.66C514.656 234.824 514.799 235.021 514.9 235.24H515.09V236.24V236.29V236.51V236.8H514.81C514.717 236.981 514.588 237.141 514.43 237.27C514.18 237.514 513.893 237.717 513.58 237.87C513.45 238.22 513.04 238.33 512.44 238.37H511.81H511.67H511.39L511.2 238.45ZM511.12 236.83H511.5H511.66H511.75C511.866 236.801 511.979 236.764 512.09 236.72C512.259 236.648 512.412 236.543 512.54 236.41C512.607 236.358 512.659 236.289 512.69 236.21V236.21V236.15C512.687 236.127 512.687 236.103 512.69 236.08V235.89C512.69 235.89 512.69 235.78 512.69 235.76C512.664 235.675 512.616 235.599 512.55 235.54C512.408 235.399 512.242 235.284 512.06 235.2L511.74 235.1H511.65H511.48H510.98L510.73 235.2H510.62C510.416 235.277 510.226 235.389 510.06 235.53V235.53C510.035 235.574 510.005 235.614 509.97 235.65V235.75C509.965 235.777 509.965 235.804 509.97 235.83C509.971 235.853 509.971 235.877 509.97 235.9V236.08V236.17C509.97 236.17 509.97 236.17 509.97 236.24V236.34L510.06 236.45C510.224 236.595 510.414 236.707 510.62 236.78H510.73L510.98 236.88H511.11L511.12 236.83Z" fill="#88E5FC"/>
    <path d="M510.44 240.22L509.68 237.32H508.68V236.58C508.687 236.469 508.723 236.362 508.785 236.269C508.846 236.176 508.931 236.1 509.03 236.05L506.03 235.22L509.88 234.78V234.48H510.93V234.32H511.93H512.93V234.49C513.42 234.58 513.66 234.77 513.67 235.17V235.91V236.28V236.91L512.23 237.06C512.053 237.183 511.845 237.255 511.63 237.27L510.44 240.22Z" fill="#88E5FC"/>
    <path opacity="0.1" d="M260.31 439.75C378.438 439.75 474.2 427.057 474.2 411.4C474.2 395.743 378.438 383.05 260.31 383.05C142.182 383.05 46.42 395.743 46.42 411.4C46.42 427.057 142.182 439.75 260.31 439.75Z" fill="black"/>
    <path d="M338.15 330H188.83V395.23H338.15V330Z" fill="#417CE8"/>
    <path opacity="0.68" d="M338.15 389.24H188.83V404.7H338.15V389.24Z" fill="#3463BA"/>
    <path opacity="0.68" d="M338.15 330H188.83V356.25H338.15V330Z" fill="#3463BA"/>
    <path d="M351.61 395.26H175.36C171.936 395.26 169.16 398.036 169.16 401.46V407.36C169.16 410.784 171.936 413.56 175.36 413.56H351.61C355.034 413.56 357.81 410.784 357.81 407.36V401.46C357.81 398.036 355.034 395.26 351.61 395.26Z" fill="#417CE8"/>
    <path d="M489.3 0C498.335 0.0290049 506.992 3.63097 513.38 10.0197C519.769 16.4084 523.371 25.065 523.4 34.1V311.87C523.371 320.905 519.769 329.562 513.38 335.95C506.992 342.339 498.335 345.941 489.3 345.97H34.1C25.0642 345.944 16.4061 342.342 10.0168 335.953C3.6275 329.564 0.026382 320.906 0 311.87V34.12C0.026382 25.0842 3.6275 16.4261 10.0168 10.0368C16.4061 3.64752 25.0642 0.046371 34.1 0.019989L489.3 0Z" fill="#417CE8"/>
    <path d="M469.81 22.77C477.126 22.7911 484.137 25.7068 489.31 30.8801C494.483 36.0534 497.399 43.0639 497.42 50.38V294.05C497.399 301.366 494.483 308.377 489.31 313.55C484.137 318.723 477.126 321.639 469.81 321.66H53.95C46.6338 321.639 39.6234 318.723 34.4501 313.55C29.2768 308.377 26.3611 301.366 26.34 294.05V50.37C26.3611 43.0548 29.2771 36.0454 34.4507 30.8737C39.6243 25.702 46.6348 22.7885 53.95 22.77H469.81Z" fill="white"/>
    <path d="M58.98 54.56C58.982 55.5656 58.6854 56.5491 58.128 57.3861C57.5706 58.223 56.7773 58.8757 55.8487 59.2614C54.92 59.6471 53.8978 59.7486 52.9114 59.5529C51.925 59.3572 51.0189 58.8731 50.3079 58.1621C49.5968 57.451 49.1128 56.545 48.9171 55.5586C48.7214 54.5722 48.8229 53.55 49.2086 52.6213C49.5943 51.6927 50.247 50.8994 51.0839 50.342C51.9209 49.7845 52.9044 49.488 53.91 49.49C55.2546 49.49 56.5442 50.0242 57.495 50.975C58.4458 51.9258 58.98 53.2154 58.98 54.56Z" fill="url(#paint0_linear_3_193)"/>
    <path d="M72.36 54.56C72.362 55.5652 72.0657 56.5483 71.5087 57.385C70.9517 58.2217 70.159 58.8744 69.231 59.2604C68.3029 59.6465 67.2812 59.7485 66.2951 59.5536C65.309 59.3587 64.4029 58.8757 63.6914 58.1656C62.98 57.4556 62.4952 56.5504 62.2984 55.5647C62.1015 54.579 62.2016 53.5571 62.5858 52.6283C62.97 51.6994 63.6211 50.9055 64.4567 50.3468C65.2923 49.7882 66.2749 49.49 67.28 49.49C68.6256 49.49 69.9162 50.0238 70.8686 50.9744C71.821 51.9249 72.3573 53.2144 72.36 54.56V54.56Z" fill="#FFC763"/>
    <path d="M85.53 54.56C85.532 55.5656 85.2355 56.5491 84.678 57.3861C84.1206 58.223 83.3273 58.8757 82.3986 59.2614C81.47 59.6471 80.4477 59.7486 79.4614 59.5529C78.475 59.3572 77.569 58.8731 76.8579 58.1621C76.1468 57.451 75.6628 56.545 75.4671 55.5586C75.2714 54.5722 75.3729 53.55 75.7586 52.6213C76.1443 51.6927 76.797 50.8994 77.6339 50.342C78.4709 49.7845 79.4544 49.488 80.46 49.49C81.8046 49.49 83.0942 50.0242 84.045 50.975C84.9958 51.9258 85.53 53.2154 85.53 54.56V54.56Z" fill="#54D6BD"/>
    <path d="M113.86 53.6101C113.636 53.3743 113.363 53.1901 113.06 53.0701C112.701 52.9249 112.317 52.8534 111.93 52.8601C111.45 52.8228 110.972 52.9459 110.57 53.2101C110.425 53.3316 110.311 53.4853 110.236 53.659C110.162 53.8327 110.129 54.0214 110.14 54.2101C110.132 54.3911 110.174 54.5708 110.26 54.7301C110.342 54.8772 110.463 54.9984 110.61 55.0801C110.8 55.1954 111.005 55.283 111.22 55.3401C111.47 55.4101 111.76 55.4901 112.1 55.5601C112.438 55.6315 112.772 55.7216 113.1 55.8301C113.373 55.9168 113.632 56.0413 113.87 56.2001C114.071 56.3395 114.235 56.5246 114.35 56.7401C114.475 56.9877 114.533 57.2633 114.52 57.5401C114.528 57.8316 114.463 58.1204 114.33 58.3801C114.21 58.618 114.031 58.8211 113.81 58.9701C113.564 59.1374 113.289 59.2593 113 59.3301C112.672 59.403 112.336 59.4399 112 59.4401C110.966 59.4639 109.959 59.1082 109.17 58.4401L109.52 57.8701C109.654 58.0145 109.805 58.1421 109.97 58.2501C110.156 58.3731 110.353 58.477 110.56 58.5601C110.782 58.6538 111.013 58.7242 111.25 58.7701C111.503 58.823 111.761 58.8498 112.02 58.8501C112.48 58.8714 112.937 58.7641 113.34 58.5401C113.495 58.4441 113.62 58.3076 113.703 58.1455C113.786 57.9834 113.823 57.8017 113.81 57.6201C113.814 57.4275 113.765 57.2375 113.67 57.0701C113.567 56.9146 113.431 56.7846 113.27 56.6901C113.063 56.5664 112.841 56.4689 112.61 56.4001C112.34 56.3201 112.03 56.2501 111.68 56.1701C111.33 56.0901 110.99 55.9901 110.68 55.9001C110.429 55.8223 110.193 55.7041 109.98 55.5501C109.795 55.4215 109.644 55.2499 109.54 55.0501C109.443 54.8228 109.395 54.5773 109.4 54.3301C109.396 54.0304 109.457 53.7334 109.58 53.4601C109.702 53.2126 109.88 52.9969 110.1 52.8301C110.341 52.6531 110.612 52.521 110.9 52.4401C111.646 52.2295 112.44 52.2574 113.17 52.5201C113.537 52.658 113.876 52.8613 114.17 53.1201L113.86 53.6101Z" fill="#4758FF"/>
    <path d="M117.86 59.44C117.511 59.4463 117.165 59.3782 116.844 59.2403C116.523 59.1023 116.235 58.8977 116 58.64C115.648 58.249 115.412 57.7683 115.317 57.2512C115.221 56.7341 115.271 56.2007 115.46 55.71C115.585 55.3981 115.768 55.113 116 54.87C116.233 54.625 116.511 54.428 116.82 54.29C117.146 54.1514 117.496 54.08 117.85 54.08C118.204 54.08 118.554 54.1514 118.88 54.29C119.186 54.428 119.461 54.6251 119.69 54.87C119.917 55.1188 120.096 55.4068 120.22 55.72C120.348 56.0378 120.412 56.3775 120.41 56.72V56.88C120.417 56.9164 120.417 56.9536 120.41 56.99H115.98C116.001 57.2554 116.065 57.5156 116.17 57.76C116.274 57.9886 116.42 58.1955 116.6 58.37C116.771 58.5376 116.971 58.6731 117.19 58.77C117.414 58.8671 117.656 58.9149 117.9 58.91C118.065 58.9098 118.23 58.8897 118.39 58.85C118.55 58.8051 118.705 58.7413 118.85 58.66C118.99 58.5777 119.117 58.4768 119.23 58.36C119.34 58.251 119.428 58.122 119.49 57.98L120.07 58.14C119.991 58.3338 119.876 58.5104 119.73 58.66C119.584 58.8202 119.416 58.9583 119.23 59.07C119.028 59.1839 118.813 59.2744 118.59 59.34C118.352 59.4049 118.107 59.4385 117.86 59.44V59.44ZM119.76 56.44C119.744 56.1771 119.68 55.9194 119.57 55.68C119.463 55.4621 119.321 55.2628 119.15 55.09C118.982 54.9285 118.785 54.7996 118.57 54.71C118.346 54.6129 118.104 54.5652 117.86 54.57C117.613 54.5662 117.368 54.6139 117.14 54.71C116.913 54.7974 116.706 54.9316 116.534 55.1039C116.362 55.2761 116.227 55.4826 116.14 55.71C116.03 55.9459 115.966 56.2003 115.95 56.46L119.76 56.44Z" fill="#4758FF"/>
    <path d="M122.75 59.4401C122.518 59.4417 122.288 59.4011 122.07 59.3201C121.869 59.2393 121.686 59.1204 121.53 58.9701C121.371 58.829 121.245 58.655 121.16 58.4601C121.075 58.261 121.031 58.0467 121.03 57.8301C121.032 57.6134 121.087 57.4006 121.19 57.2101C121.304 57.0141 121.457 56.8439 121.64 56.7101C121.844 56.5614 122.075 56.4528 122.32 56.3901C122.606 56.3076 122.902 56.2672 123.2 56.2701C123.468 56.2739 123.735 56.2973 124 56.3401C124.249 56.3863 124.493 56.4532 124.73 56.5401V56.1201C124.74 55.9216 124.711 55.7231 124.644 55.5359C124.577 55.3488 124.474 55.1769 124.34 55.0301C124.199 54.8929 124.031 54.7866 123.847 54.7177C123.663 54.6489 123.466 54.619 123.27 54.6301C122.989 54.6308 122.711 54.6851 122.45 54.7901C122.151 54.9005 121.868 55.0519 121.61 55.2401L121.37 54.8001C121.937 54.383 122.617 54.1461 123.32 54.1201C123.599 54.1054 123.878 54.1465 124.14 54.241C124.403 54.3354 124.644 54.4813 124.85 54.6701C125.041 54.87 125.189 55.1075 125.283 55.3674C125.378 55.6273 125.418 55.904 125.4 56.1801V58.5101C125.4 58.6901 125.48 58.7901 125.65 58.7901V59.3801H125.39C125.245 59.3893 125.102 59.3428 124.99 59.2501C124.94 59.2072 124.9 59.1533 124.874 59.0926C124.848 59.0319 124.836 58.966 124.84 58.9001V58.4901C124.604 58.7983 124.295 59.0424 123.94 59.2001C123.567 59.3694 123.16 59.4514 122.75 59.4401V59.4401ZM122.91 58.9201C123.253 58.929 123.594 58.8642 123.91 58.7301C124.176 58.6153 124.407 58.4325 124.58 58.2001C124.635 58.1459 124.68 58.0813 124.71 58.0101C124.74 57.9473 124.757 57.8794 124.76 57.8101V56.9701C124.533 56.8837 124.299 56.8168 124.06 56.7701C123.816 56.722 123.568 56.6986 123.32 56.7001C122.912 56.6792 122.507 56.7839 122.16 57.0001C122.023 57.0791 121.909 57.1928 121.83 57.3298C121.751 57.4667 121.71 57.622 121.71 57.7801C121.709 57.9347 121.74 58.0878 121.8 58.2301C121.863 58.3653 121.952 58.4874 122.06 58.5901C122.174 58.6961 122.306 58.7808 122.45 58.8401C122.598 58.8931 122.753 58.9201 122.91 58.9201V58.9201Z" fill="#4758FF"/>
    <path d="M129.44 54.77C129.015 54.7682 128.599 54.8974 128.25 55.14C127.907 55.3829 127.656 55.7356 127.54 56.14V59.35H126.86V54.18H127.5V55.42C127.669 55.047 127.935 54.7259 128.27 54.49C128.56 54.2764 128.91 54.1577 129.27 54.15H129.4L129.44 54.77Z" fill="#4758FF"/>
    <path d="M129.73 56.74C129.73 56.3977 129.795 56.0585 129.92 55.74C130.035 55.4226 130.216 55.1329 130.45 54.89C130.683 54.6472 130.961 54.4535 131.27 54.3201C131.602 54.1777 131.959 54.1061 132.32 54.11C132.769 54.0986 133.212 54.2129 133.6 54.4401C133.954 54.6548 134.239 54.9673 134.42 55.34L133.77 55.55C133.626 55.2925 133.415 55.0784 133.16 54.93C132.914 54.7964 132.641 54.7214 132.362 54.711C132.083 54.7006 131.805 54.755 131.55 54.87C131.323 54.9714 131.119 55.1176 130.95 55.3C130.78 55.4899 130.647 55.7105 130.56 55.95C130.458 56.2112 130.407 56.4896 130.41 56.77C130.407 57.3216 130.607 57.8551 130.97 58.27C131.141 58.4529 131.344 58.6022 131.57 58.71C131.797 58.8216 132.047 58.8798 132.3 58.8801C132.466 58.8771 132.63 58.8536 132.79 58.81C132.948 58.7641 133.1 58.6968 133.24 58.61C133.374 58.5363 133.496 58.4418 133.6 58.33C133.692 58.232 133.764 58.1163 133.81 57.99L134.47 58.1901C134.402 58.3792 134.297 58.5527 134.16 58.7C134.015 58.8577 133.851 58.9955 133.67 59.11C133.471 59.2238 133.26 59.3144 133.04 59.3801C132.808 59.4401 132.569 59.4703 132.33 59.4701C131.98 59.4752 131.632 59.4066 131.31 59.2688C130.988 59.131 130.698 58.927 130.46 58.67C129.982 58.1539 129.72 57.4736 129.73 56.77V56.74Z" fill="#4758FF"/>
    <path d="M139.88 59.3401H139.21V56.4501C139.242 55.9902 139.138 55.531 138.91 55.1301C138.812 54.9875 138.678 54.8728 138.522 54.7975C138.366 54.7221 138.193 54.6885 138.02 54.7001C137.825 54.6977 137.631 54.7351 137.45 54.8101C137.26 54.8878 137.081 54.9922 136.92 55.1201C136.753 55.2567 136.605 55.4148 136.48 55.5901C136.359 55.7708 136.267 55.9701 136.21 56.1801V59.3401H135.54V52.1201H136.21V55.3601C136.405 54.9825 136.699 54.6646 137.06 54.4401C137.416 54.2147 137.829 54.0967 138.25 54.1001C138.509 54.0956 138.765 54.1504 139 54.2601C139.203 54.372 139.378 54.5294 139.51 54.7201C139.647 54.9374 139.742 55.1781 139.79 55.4301C139.853 55.726 139.883 56.0277 139.88 56.3301V59.3401Z" fill="#4758FF"/>
    <path d="M413.92 59.4001L410.81 56.3101C411.336 55.4822 411.614 54.5209 411.61 53.5401C411.613 52.3635 411.219 51.2202 410.491 50.2953C409.764 49.3703 408.746 48.7176 407.602 48.4426C406.458 48.1677 405.255 48.2866 404.186 48.7801C403.118 49.2736 402.248 50.1129 401.716 51.1623C401.183 52.2117 401.021 53.4099 401.254 54.5633C401.487 55.7167 402.102 56.7578 402.999 57.5184C403.897 58.279 405.025 58.7146 406.201 58.7548C407.377 58.795 408.532 58.4375 409.48 57.7401L412.48 60.7401C412.666 60.9174 412.913 61.0163 413.17 61.0163C413.427 61.0163 413.674 60.9174 413.86 60.7401C414.034 60.5639 414.137 60.3292 414.148 60.0816C414.159 59.8341 414.078 59.5912 413.92 59.4001ZM406.42 56.8001C405.775 56.8001 405.145 56.6089 404.609 56.2507C404.073 55.8925 403.655 55.3833 403.408 54.7876C403.161 54.1919 403.097 53.5365 403.223 52.9041C403.348 52.2717 403.659 51.6909 404.115 51.2349C404.571 50.779 405.152 50.4685 405.784 50.3427C406.416 50.2169 407.072 50.2815 407.668 50.5282C408.263 50.775 408.772 51.1928 409.131 51.729C409.489 52.2651 409.68 52.8953 409.68 53.5401C409.677 54.4039 409.333 55.2316 408.722 55.8424C408.111 56.4532 407.284 56.7974 406.42 56.8001V56.8001Z" fill="#4758FF"/>
    <path d="M413.55 67.0601H110.32C103.25 67.0601 97.49 61.5901 97.49 54.8701C97.49 48.1501 103.25 42.6901 110.32 42.6901H413.55C420.62 42.6901 426.37 48.1501 426.37 54.8701C426.37 61.5901 420.62 67.0601 413.55 67.0601ZM110.32 43.5101C103.7 43.5101 98.32 48.6101 98.32 54.8701C98.32 61.1301 103.7 66.23 110.32 66.23H413.55C420.16 66.23 425.55 61.1401 425.55 54.8701C425.55 48.6001 420.17 43.5101 413.55 43.5101H110.32Z" fill="#4758FF"/>
    <path d="M301.11 87.1001H104.69C100.123 87.1001 96.42 90.8027 96.42 95.3701V292.89C96.42 297.458 100.123 301.16 104.69 301.16H301.11C305.677 301.16 309.38 297.458 309.38 292.89V95.3701C309.38 90.8027 305.677 87.1001 301.11 87.1001Z" fill="#41D4E8"/>
    <path d="M419.33 204.51H337.49C332.923 204.51 329.22 208.213 329.22 212.78V294.62C329.22 299.187 332.923 302.89 337.49 302.89H419.33C423.897 302.89 427.6 299.187 427.6 294.62V212.78C427.6 208.213 423.897 204.51 419.33 204.51Z" fill="white"/>
    <path d="M416.84 202.03H335C330.433 202.03 326.73 205.733 326.73 210.3V292.14C326.73 296.707 330.433 300.41 335 300.41H416.84C421.407 300.41 425.11 296.707 425.11 292.14V210.3C425.11 205.733 421.407 202.03 416.84 202.03Z" fill="#C8D2ED"/>
    <path d="M416.85 204.51H337.49C332.923 204.51 329.22 208.213 329.22 212.78V292.14C329.22 296.707 332.923 300.41 337.49 300.41H416.85C421.417 300.41 425.12 296.707 425.12 292.14V212.78C425.12 208.213 421.417 204.51 416.85 204.51Z" fill="#E6E9F2"/>
    <path d="M384.96 251.29H379.59V245.91C379.59 245.38 379.379 244.871 379.004 244.496C378.629 244.121 378.12 243.91 377.59 243.91C377.06 243.91 376.551 244.121 376.176 244.496C375.801 244.871 375.59 245.38 375.59 245.91V251.29H370.21C369.68 251.29 369.171 251.501 368.796 251.876C368.421 252.251 368.21 252.76 368.21 253.29C368.21 253.82 368.421 254.329 368.796 254.704C369.171 255.079 369.68 255.29 370.21 255.29H375.59V260.66C375.59 261.19 375.801 261.699 376.176 262.074C376.551 262.449 377.06 262.66 377.59 262.66C378.12 262.66 378.629 262.449 379.004 262.074C379.379 261.699 379.59 261.19 379.59 260.66V255.29H384.96C385.49 255.29 385.999 255.079 386.374 254.704C386.749 254.329 386.96 253.82 386.96 253.29C386.96 252.76 386.749 252.251 386.374 251.876C385.999 251.501 385.49 251.29 384.96 251.29Z" fill="#C8D2ED"/>
    <path d="M377.58 275.2C373.247 275.2 369.011 273.915 365.407 271.508C361.804 269.1 358.996 265.678 357.338 261.675C355.679 257.671 355.246 253.266 356.091 249.016C356.936 244.765 359.023 240.862 362.087 237.797C365.151 234.733 369.055 232.646 373.306 231.801C377.556 230.956 381.961 231.39 385.965 233.048C389.968 234.706 393.39 237.514 395.797 241.117C398.205 244.721 399.49 248.957 399.49 253.29C399.485 259.099 397.175 264.669 393.067 268.777C388.959 272.885 383.389 275.195 377.58 275.2ZM377.58 234.7C373.901 234.7 370.304 235.791 367.245 237.835C364.186 239.88 361.802 242.785 360.395 246.184C358.987 249.584 358.62 253.324 359.338 256.932C360.057 260.541 361.829 263.855 364.431 266.456C367.034 269.057 370.349 270.827 373.957 271.544C377.566 272.26 381.306 271.891 384.705 270.481C388.103 269.072 391.008 266.686 393.05 263.626C395.093 260.566 396.182 256.969 396.18 253.29C396.175 248.36 394.213 243.633 390.726 240.147C387.238 236.662 382.51 234.703 377.58 234.7V234.7Z" fill="#C8D2ED"/>
    <path d="M384.13 249.63H378.81V244.26C378.81 243.73 378.599 243.221 378.224 242.846C377.849 242.471 377.34 242.26 376.81 242.26C376.28 242.26 375.771 242.471 375.396 242.846C375.021 243.221 374.81 243.73 374.81 244.26V249.63H369.44C368.91 249.63 368.401 249.841 368.026 250.216C367.651 250.591 367.44 251.1 367.44 251.63C367.44 252.16 367.651 252.669 368.026 253.044C368.401 253.419 368.91 253.63 369.44 253.63H374.81V259.01C374.81 259.54 375.021 260.049 375.396 260.424C375.771 260.799 376.28 261.01 376.81 261.01C377.34 261.01 377.849 260.799 378.224 260.424C378.599 260.049 378.81 259.54 378.81 259.01V253.63H384.18C384.71 253.63 385.219 253.419 385.594 253.044C385.969 252.669 386.18 252.16 386.18 251.63C386.18 251.1 385.969 250.591 385.594 250.216C385.219 249.841 384.71 249.63 384.18 249.63H384.13Z" fill="white"/>
    <path d="M376.75 273.54C372.416 273.54 368.18 272.255 364.576 269.847C360.973 267.439 358.165 264.016 356.507 260.012C354.849 256.008 354.415 251.602 355.262 247.352C356.108 243.101 358.196 239.197 361.261 236.134C364.326 233.07 368.231 230.984 372.482 230.14C376.732 229.295 381.138 229.731 385.142 231.391C389.145 233.051 392.566 235.86 394.972 239.465C397.379 243.069 398.662 247.306 398.66 251.64C398.652 257.448 396.341 263.015 392.233 267.12C388.126 271.226 382.558 273.535 376.75 273.54V273.54ZM376.75 233.04C373.071 233.04 369.475 234.131 366.416 236.175C363.358 238.218 360.974 241.123 359.566 244.522C358.158 247.921 357.79 251.661 358.507 255.269C359.225 258.877 360.997 262.191 363.598 264.792C366.199 267.393 369.513 269.165 373.121 269.883C376.729 270.6 380.469 270.232 383.868 268.824C387.267 267.416 390.172 265.032 392.215 261.974C394.259 258.915 395.35 255.319 395.35 251.64C395.347 246.708 393.387 241.978 389.899 238.491C386.412 235.003 381.682 233.043 376.75 233.04V233.04Z" fill="white"/>
    <path d="M419.33 86.16H337.49C332.923 86.16 329.22 89.8626 329.22 94.43V176.27C329.22 180.837 332.923 184.54 337.49 184.54H419.33C423.897 184.54 427.6 180.837 427.6 176.27V94.43C427.6 89.8626 423.897 86.16 419.33 86.16Z" fill="white"/>
    <path d="M416.84 83.6801H335C330.433 83.6801 326.73 87.3826 326.73 91.95V173.79C326.73 178.357 330.433 182.06 335 182.06H416.84C421.407 182.06 425.11 178.357 425.11 173.79V91.95C425.11 87.3826 421.407 83.6801 416.84 83.6801Z" fill="#C8D2ED"/>
    <path d="M416.85 86.16H337.49C332.923 86.16 329.22 89.8626 329.22 94.43V173.79C329.22 178.357 332.923 182.06 337.49 182.06H416.85C421.417 182.06 425.12 178.357 425.12 173.79V94.43C425.12 89.8626 421.417 86.16 416.85 86.16Z" fill="#E6E9F2"/>
    <path d="M384.96 132.94H379.59V127.56C379.59 127.03 379.379 126.521 379.004 126.146C378.629 125.771 378.12 125.56 377.59 125.56C377.06 125.56 376.551 125.771 376.176 126.146C375.801 126.521 375.59 127.03 375.59 127.56V132.94H370.21C369.68 132.94 369.171 133.151 368.796 133.526C368.421 133.901 368.21 134.41 368.21 134.94C368.21 135.47 368.421 135.979 368.796 136.354C369.171 136.729 369.68 136.94 370.21 136.94H375.59V142.32C375.59 142.851 375.801 143.359 376.176 143.734C376.551 144.109 377.06 144.32 377.59 144.32C378.12 144.32 378.629 144.109 379.004 143.734C379.379 143.359 379.59 142.851 379.59 142.32V136.94H384.96C385.49 136.94 385.999 136.729 386.374 136.354C386.749 135.979 386.96 135.47 386.96 134.94C386.96 134.41 386.749 133.901 386.374 133.526C385.999 133.151 385.49 132.94 384.96 132.94Z" fill="#C8D2ED"/>
    <path d="M377.58 156.85C373.247 156.85 369.011 155.565 365.407 153.158C361.804 150.75 358.996 147.328 357.338 143.325C355.679 139.321 355.246 134.916 356.091 130.666C356.936 126.415 359.023 122.512 362.087 119.447C365.151 116.383 369.055 114.296 373.306 113.451C377.556 112.606 381.961 113.04 385.965 114.698C389.968 116.356 393.39 119.164 395.797 122.768C398.205 126.371 399.49 130.607 399.49 134.94C399.485 140.749 397.175 146.319 393.067 150.427C388.959 154.535 383.389 156.845 377.58 156.85ZM377.58 116.34C373.901 116.34 370.305 117.431 367.246 119.475C364.188 121.519 361.804 124.423 360.396 127.822C358.988 131.221 358.62 134.961 359.337 138.569C360.055 142.177 361.827 145.491 364.428 148.092C367.029 150.693 370.343 152.465 373.951 153.183C377.559 153.9 381.299 153.532 384.698 152.124C388.097 150.716 391.002 148.332 393.045 145.274C395.089 142.215 396.18 138.619 396.18 134.94C396.175 130.009 394.213 125.281 390.726 121.794C387.239 118.307 382.511 116.345 377.58 116.34V116.34Z" fill="#C8D2ED"/>
    <path d="M384.13 131.28H378.81V125.91C378.81 125.38 378.599 124.871 378.224 124.496C377.849 124.121 377.34 123.91 376.81 123.91C376.28 123.91 375.771 124.121 375.396 124.496C375.021 124.871 374.81 125.38 374.81 125.91V131.28H369.44C368.91 131.28 368.401 131.491 368.026 131.866C367.651 132.241 367.44 132.75 367.44 133.28C367.44 133.81 367.651 134.319 368.026 134.694C368.401 135.069 368.91 135.28 369.44 135.28H374.81V140.65C374.81 141.18 375.021 141.689 375.396 142.064C375.771 142.439 376.28 142.65 376.81 142.65C377.34 142.65 377.849 142.439 378.224 142.064C378.599 141.689 378.81 141.18 378.81 140.65V135.28H384.18C384.71 135.28 385.219 135.069 385.594 134.694C385.969 134.319 386.18 133.81 386.18 133.28C386.18 132.75 385.969 132.241 385.594 131.866C385.219 131.491 384.71 131.28 384.18 131.28H384.13Z" fill="white"/>
    <path d="M376.75 155.19C372.416 155.19 368.18 153.905 364.576 151.497C360.973 149.089 358.165 145.667 356.507 141.662C354.849 137.658 354.415 133.252 355.262 129.002C356.108 124.752 358.196 120.848 361.261 117.784C364.326 114.72 368.231 112.634 372.482 111.79C376.732 110.946 381.138 111.381 385.142 113.041C389.145 114.701 392.566 117.51 394.972 121.115C397.379 124.719 398.662 128.956 398.66 133.29C398.652 139.098 396.341 144.665 392.233 148.771C388.126 152.876 382.558 155.185 376.75 155.19ZM376.75 114.69C373.071 114.69 369.475 115.781 366.416 117.825C363.358 119.869 360.974 122.774 359.566 126.172C358.158 129.571 357.79 133.311 358.507 136.919C359.225 140.527 360.997 143.841 363.598 146.442C366.199 149.044 369.513 150.815 373.121 151.533C376.729 152.25 380.469 151.882 383.868 150.474C387.267 149.066 390.172 146.682 392.215 143.624C394.259 140.565 395.35 136.969 395.35 133.29C395.347 128.358 393.387 123.628 389.899 120.141C386.412 116.653 381.682 114.693 376.75 114.69V114.69Z" fill="white"/>
    <path id="gear" d="M461.91 40.4501L461.05 43.9901C460.426 44.1839 459.821 44.4315 459.24 44.7301L456.24 42.9201C456.071 42.8176 455.873 42.7746 455.677 42.7982C455.482 42.8218 455.299 42.9105 455.16 43.0501L452.65 45.5601C452.51 45.6998 452.422 45.8828 452.401 46.079C452.379 46.2753 452.424 46.4732 452.53 46.6401L454.33 49.6401C454.03 50.2166 453.782 50.8191 453.59 51.4401L450.06 52.2901C449.868 52.342 449.698 52.4549 449.575 52.6117C449.452 52.7686 449.384 52.961 449.38 53.1601V56.7001C449.384 56.8991 449.452 57.0916 449.575 57.2484C449.698 57.4053 449.868 57.5182 450.06 57.5701L453.59 58.4201C453.782 59.0411 454.03 59.6435 454.33 60.2201L452.53 63.2201C452.424 63.387 452.379 63.5849 452.401 63.7811C452.422 63.9774 452.51 64.1604 452.65 64.3001L455.16 66.8101C455.299 66.9497 455.482 67.0384 455.677 67.062C455.873 67.0855 456.071 67.0426 456.24 66.9401L459.24 65.1301C459.822 65.4277 460.428 65.6785 461.05 65.8801L461.91 69.2901C461.957 69.4805 462.066 69.6498 462.22 69.7712C462.374 69.8926 462.564 69.9591 462.76 69.9601H466.3C466.497 69.9608 466.688 69.895 466.842 69.7733C466.996 69.6517 467.105 69.4814 467.15 69.2901L468.02 65.8801C468.636 65.6742 469.234 65.4201 469.81 65.1201L472.81 66.9301C472.978 67.0344 473.176 67.0783 473.373 67.0547C473.569 67.0311 473.752 66.9413 473.89 66.8001L476.41 64.2901C476.546 64.1486 476.632 63.9659 476.654 63.7705C476.676 63.5752 476.632 63.3781 476.53 63.2101L474.73 60.2101C475.026 59.6316 475.274 59.0295 475.47 58.4101L478.89 57.5601C479.081 57.5078 479.25 57.3946 479.371 57.2375C479.492 57.0805 479.558 56.8883 479.56 56.6901V53.1501C479.558 52.9519 479.492 52.7597 479.371 52.6026C479.25 52.4456 479.081 52.3324 478.89 52.2801L475.47 51.4301C475.274 50.8106 475.026 50.2086 474.73 49.6301L476.53 46.6301C476.632 46.4621 476.676 46.265 476.654 46.0696C476.632 45.8743 476.546 45.6916 476.41 45.5501L473.89 43.0401C473.752 42.8989 473.569 42.8091 473.373 42.7855C473.176 42.7619 472.978 42.8058 472.81 42.9101L469.81 44.7201C469.229 44.4215 468.624 44.1739 468 43.9801L467.13 40.4401C467.085 40.2488 466.976 40.0785 466.822 39.9568C466.667 39.8352 466.476 39.7693 466.28 39.7701H462.81C462.604 39.7601 462.401 39.8227 462.237 39.9469C462.072 40.0712 461.957 40.2493 461.91 40.4501V40.4501ZM468.91 54.9401C468.912 55.8167 468.654 56.6742 468.168 57.404C467.683 58.1338 466.992 58.7032 466.182 59.04C465.373 59.3768 464.482 59.466 463.622 59.2962C462.762 59.1264 461.972 58.7053 461.351 58.0861C460.731 57.467 460.308 56.6776 460.136 55.818C459.964 54.9584 460.051 54.0672 460.386 53.2571C460.721 52.4471 461.289 51.7546 462.018 51.2674C462.746 50.7802 463.603 50.5201 464.48 50.5201C465.065 50.5121 465.647 50.6206 466.19 50.8392C466.733 51.0577 467.227 51.382 467.644 51.7933C468.061 52.2045 468.392 52.6944 468.618 53.2347C468.844 53.7749 468.96 54.3546 468.96 54.9401H468.91Z" fill="#4758FF"/>
    <g opacity="0.1">
        <g style="mix-blend-mode:multiply" opacity="0.05">
            <path d="M374.64 133.08H290.41C278.287 133.08 268.46 142.907 268.46 155.03V239.26C268.46 251.383 278.287 261.21 290.41 261.21H374.64C386.763 261.21 396.59 251.383 396.59 239.26V155.03C396.59 142.907 386.763 133.08 374.64 133.08Z" fill="black"/>
        </g>
        <g style="mix-blend-mode:multiply" opacity="0.1">
            <path d="M373.81 133.8H291.09C279.072 133.8 269.33 143.542 269.33 155.56V238.28C269.33 250.298 279.072 260.04 291.09 260.04H373.81C385.828 260.04 395.57 250.298 395.57 238.28V155.56C395.57 143.542 385.828 133.8 373.81 133.8Z" fill="black"/>
        </g>
        <g style="mix-blend-mode:multiply" opacity="0.14">
            <path d="M372.99 134.51H291.75C279.843 134.51 270.19 144.163 270.19 156.07V237.31C270.19 249.217 279.843 258.87 291.75 258.87H372.99C384.897 258.87 394.55 249.217 394.55 237.31V156.07C394.55 144.163 384.897 134.51 372.99 134.51Z" fill="black"/>
        </g>
        <g style="mix-blend-mode:multiply" opacity="0.19">
            <path d="M372.16 135.23H292.43C280.628 135.23 271.06 144.798 271.06 156.6V236.33C271.06 248.132 280.628 257.7 292.43 257.7H372.16C383.962 257.7 393.53 248.132 393.53 236.33V156.6C393.53 144.798 383.962 135.23 372.16 135.23Z" fill="black"/>
        </g>
        <g style="mix-blend-mode:multiply" opacity="0.24">
            <path d="M371.34 135.94H293.11C281.413 135.94 271.93 145.423 271.93 157.12V235.35C271.93 247.048 281.413 256.53 293.11 256.53H371.34C383.037 256.53 392.52 247.048 392.52 235.35V157.12C392.52 145.423 383.037 135.94 371.34 135.94Z" fill="black"/>
        </g>
        <g style="mix-blend-mode:multiply" opacity="0.29">
            <path d="M293.81 136.65H370.54C376.11 136.65 381.451 138.863 385.389 142.801C389.327 146.739 391.54 152.081 391.54 157.65V234.38C391.54 239.95 389.327 245.291 385.389 249.229C381.451 253.168 376.11 255.38 370.54 255.38H293.81C288.24 255.38 282.899 253.168 278.961 249.229C275.022 245.291 272.81 239.95 272.81 234.38V157.64C272.81 152.071 275.022 146.729 278.961 142.791C282.899 138.853 288.24 136.64 293.81 136.64V136.65Z" fill="black"/>
        </g>
        <g style="mix-blend-mode:multiply" opacity="0.33">
            <path d="M369.7 137.37H294.46C282.978 137.37 273.67 146.678 273.67 158.16V233.4C273.67 244.882 282.978 254.19 294.46 254.19H369.7C381.182 254.19 390.49 244.882 390.49 233.4V158.16C390.49 146.678 381.182 137.37 369.7 137.37Z" fill="black"/>
        </g>
        <g style="mix-blend-mode:multiply" opacity="0.38">
            <path d="M368.87 138.08H295.14C283.763 138.08 274.54 147.303 274.54 158.68V232.41C274.54 243.787 283.763 253.01 295.14 253.01H368.87C380.247 253.01 389.47 243.787 389.47 232.41V158.68C389.47 147.303 380.247 138.08 368.87 138.08Z" fill="black"/>
        </g>
        <g style="mix-blend-mode:multiply" opacity="0.43">
            <path d="M368.05 138.8H295.82C284.548 138.8 275.41 147.938 275.41 159.21V231.43C275.41 242.702 284.548 251.84 295.82 251.84H368.05C379.322 251.84 388.46 242.702 388.46 231.43V159.21C388.46 147.938 379.322 138.8 368.05 138.8Z" fill="black"/>
        </g>
        <g style="mix-blend-mode:multiply" opacity="0.48">
            <path d="M367.23 139.51H296.49C285.328 139.51 276.28 148.558 276.28 159.72V230.46C276.28 241.622 285.328 250.67 296.49 250.67H367.23C378.392 250.67 387.44 241.622 387.44 230.46V159.72C387.44 148.558 378.392 139.51 367.23 139.51Z" fill="black"/>
        </g>
        <g style="mix-blend-mode:multiply" opacity="0.52">
            <path d="M366.39 140.23H297.16C286.103 140.23 277.14 149.193 277.14 160.25V229.48C277.14 240.537 286.103 249.5 297.16 249.5H366.39C377.447 249.5 386.41 240.537 386.41 229.48V160.25C386.41 149.193 377.447 140.23 366.39 140.23Z" fill="black"/>
        </g>
        <g style="mix-blend-mode:multiply" opacity="0.57">
            <path d="M365.57 140.94H297.84C286.888 140.94 278.01 149.818 278.01 160.77V228.5C278.01 239.452 286.888 248.33 297.84 248.33H365.57C376.522 248.33 385.4 239.452 385.4 228.5V160.77C385.4 149.818 376.522 140.94 365.57 140.94Z" fill="black"/>
        </g>
        <g style="mix-blend-mode:multiply" opacity="0.62">
            <path d="M364.75 141.66H298.51C287.669 141.66 278.88 150.449 278.88 161.29V227.53C278.88 238.371 287.669 247.16 298.51 247.16H364.75C375.591 247.16 384.38 238.371 384.38 227.53V161.29C384.38 150.449 375.591 141.66 364.75 141.66Z" fill="black"/>
        </g>
        <g style="mix-blend-mode:multiply" opacity="0.67">
            <path d="M363.93 142.37H299.19C288.454 142.37 279.75 151.074 279.75 161.81V226.55C279.75 237.287 288.454 245.99 299.19 245.99H363.93C374.666 245.99 383.37 237.287 383.37 226.55V161.81C383.37 151.074 374.666 142.37 363.93 142.37Z" fill="black"/>
        </g>
        <g style="mix-blend-mode:multiply" opacity="0.71">
            <path d="M363.1 143.08H299.87C289.239 143.08 280.62 151.699 280.62 162.33V225.56C280.62 236.192 289.239 244.81 299.87 244.81H363.1C373.731 244.81 382.35 236.192 382.35 225.56V162.33C382.35 151.699 373.731 143.08 363.1 143.08Z" fill="black"/>
        </g>
        <g style="mix-blend-mode:multiply" opacity="0.76">
            <path d="M300.54 143.8H362.28C367.332 143.8 372.178 145.807 375.75 149.38C379.323 152.952 381.33 157.798 381.33 162.85V224.59C381.33 229.642 379.323 234.488 375.75 238.061C372.178 241.633 367.332 243.64 362.28 243.64H300.54C295.488 243.64 290.642 241.633 287.07 238.061C283.497 234.488 281.49 229.642 281.49 224.59V162.85C281.49 157.795 283.498 152.947 287.073 149.373C290.647 145.798 295.495 143.79 300.55 143.79L300.54 143.8Z" fill="black"/>
        </g>
        <g style="mix-blend-mode:multiply" opacity="0.81">
            <path d="M361.46 144.51H301.22C290.804 144.51 282.36 152.954 282.36 163.37V223.61C282.36 234.026 290.804 242.47 301.22 242.47H361.46C371.876 242.47 380.32 234.026 380.32 223.61V163.37C380.32 152.954 371.876 144.51 361.46 144.51Z" fill="black"/>
        </g>
        <g style="mix-blend-mode:multiply" opacity="0.86">
            <path d="M360.64 145.23H301.9C291.589 145.23 283.23 153.589 283.23 163.9V222.63C283.23 232.941 291.589 241.3 301.9 241.3H360.64C370.951 241.3 379.31 232.941 379.31 222.63V163.9C379.31 153.589 370.951 145.23 360.64 145.23Z" fill="black"/>
        </g>
        <g style="mix-blend-mode:multiply" opacity="0.9">
            <path d="M359.81 145.94H302.58C292.374 145.94 284.1 154.214 284.1 164.42V221.65C284.1 231.856 292.374 240.13 302.58 240.13H359.81C370.016 240.13 378.29 231.856 378.29 221.65V164.42C378.29 154.214 370.016 145.94 359.81 145.94Z" fill="black"/>
        </g>
        <g style="mix-blend-mode:multiply" opacity="0.95">
            <path d="M358.98 146.66H303.24C293.144 146.66 284.96 154.844 284.96 164.94V220.68C284.96 230.776 293.144 238.96 303.24 238.96H358.98C369.076 238.96 377.26 230.776 377.26 220.68V164.94C377.26 154.844 369.076 146.66 358.98 146.66Z" fill="black"/>
        </g>
        <g style="mix-blend-mode:multiply" opacity="0.1">
            <path d="M358.16 147.37H303.92C293.929 147.37 285.83 155.469 285.83 165.46V219.7C285.83 229.691 293.929 237.79 303.92 237.79H358.16C368.151 237.79 376.25 229.691 376.25 219.7V165.46C376.25 155.469 368.151 147.37 358.16 147.37Z" fill="black"/>
        </g>
    </g>
    <path d="M355.93 122.58H268.88C264.119 122.58 260.26 126.439 260.26 131.2V216.72C260.26 221.481 264.119 225.34 268.88 225.34H355.93C360.691 225.34 364.55 221.481 364.55 216.72V131.2C364.55 126.439 360.691 122.58 355.93 122.58Z" fill="#4758FF"/>
    <path d="M350.42 123.4H269.36C264.793 123.4 261.09 127.103 261.09 131.67V211.26C261.09 215.828 264.793 219.53 269.36 219.53H350.42C354.987 219.53 358.69 215.828 358.69 211.26V131.67C358.69 127.103 354.987 123.4 350.42 123.4Z" fill="#417CE8"/>
    <g style="mix-blend-mode:multiply">
        <path d="M334.73 178.57L323.22 190.76C323.053 190.939 322.853 191.084 322.63 191.185C322.407 191.286 322.166 191.342 321.922 191.349C321.677 191.357 321.433 191.315 321.205 191.228C320.976 191.141 320.767 191.009 320.59 190.84C320.23 190.5 320.019 190.032 320.004 189.537C319.989 189.042 320.171 188.561 320.51 188.2L330.81 177.29L320.51 166.38C320.342 166.202 320.21 165.993 320.123 165.764C320.036 165.535 319.995 165.292 320.002 165.047C320.009 164.802 320.064 164.561 320.164 164.338C320.264 164.115 320.407 163.913 320.585 163.745C320.763 163.577 320.972 163.446 321.201 163.358C321.43 163.271 321.673 163.23 321.918 163.237C322.163 163.244 322.404 163.299 322.627 163.399C322.85 163.499 323.052 163.642 323.22 163.82L334.73 176.01C335.058 176.356 335.24 176.814 335.24 177.29C335.24 177.766 335.058 178.225 334.73 178.57V178.57ZM300.21 188.2L289.92 177.29L300.21 166.38C300.549 166.021 300.732 165.541 300.718 165.047C300.704 164.553 300.494 164.085 300.135 163.745C299.776 163.406 299.296 163.223 298.802 163.237C298.308 163.251 297.839 163.461 297.5 163.82L285.99 176.01C285.667 176.358 285.487 176.815 285.487 177.29C285.487 177.765 285.667 178.222 285.99 178.57L297.5 190.76C297.839 191.12 298.308 191.329 298.802 191.343C299.296 191.357 299.776 191.175 300.135 190.835C300.494 190.496 300.704 190.027 300.718 189.533C300.732 189.039 300.549 188.56 300.21 188.2V188.2ZM313.38 157.53C312.89 157.458 312.391 157.583 311.992 157.877C311.593 158.171 311.326 158.611 311.25 159.1L305.81 194.92C305.773 195.162 305.784 195.408 305.843 195.646C305.901 195.883 306.006 196.107 306.151 196.303C306.295 196.5 306.478 196.667 306.687 196.793C306.896 196.92 307.128 197.003 307.37 197.04C307.466 197.05 307.564 197.05 307.66 197.04C308.105 197.036 308.535 196.874 308.872 196.583C309.209 196.292 309.431 195.89 309.5 195.45L314.97 159.63C315.036 159.141 314.905 158.646 314.607 158.253C314.31 157.859 313.868 157.6 313.38 157.53V157.53Z" fill="#D3D3E3"/>
    </g>
    <path d="M333.81 176.66L322.31 188.85C322.142 189.028 321.94 189.171 321.717 189.271C321.494 189.371 321.253 189.426 321.008 189.433C320.514 189.447 320.034 189.265 319.675 188.925C319.316 188.586 319.106 188.117 319.092 187.623C319.078 187.129 319.26 186.649 319.6 186.29L329.81 175.38L319.52 164.47C319.181 164.111 318.998 163.631 319.012 163.137C319.026 162.643 319.236 162.175 319.595 161.835C319.954 161.496 320.434 161.313 320.928 161.327C321.422 161.341 321.891 161.551 322.23 161.91L333.81 174.12C334.132 174.465 334.311 174.919 334.311 175.39C334.311 175.862 334.132 176.316 333.81 176.66V176.66ZM299.3 186.29L289 175.38L299.3 164.47C299.468 164.292 299.6 164.083 299.687 163.854C299.774 163.625 299.815 163.382 299.808 163.137C299.801 162.892 299.746 162.651 299.646 162.428C299.546 162.205 299.403 162.003 299.225 161.835C299.047 161.667 298.838 161.536 298.609 161.448C298.38 161.361 298.137 161.32 297.892 161.327C297.647 161.334 297.406 161.389 297.183 161.489C296.96 161.589 296.758 161.732 296.59 161.91L285.04 174.12C284.712 174.466 284.53 174.924 284.53 175.4C284.53 175.876 284.712 176.335 285.04 176.68L296.55 188.87C296.717 189.049 296.917 189.194 297.14 189.295C297.363 189.396 297.604 189.452 297.848 189.459C298.093 189.467 298.337 189.426 298.565 189.338C298.794 189.251 299.003 189.119 299.18 188.95C299.361 188.782 299.507 188.579 299.61 188.353C299.712 188.128 299.768 187.884 299.776 187.637C299.783 187.389 299.742 187.143 299.653 186.912C299.564 186.681 299.431 186.469 299.26 186.29H299.3ZM312.46 155.63C312.218 155.593 311.972 155.604 311.734 155.663C311.497 155.721 311.273 155.826 311.077 155.971C310.88 156.116 310.713 156.298 310.587 156.507C310.461 156.716 310.377 156.948 310.34 157.19L304.81 193.01C304.735 193.499 304.857 193.998 305.15 194.397C305.442 194.797 305.881 195.064 306.37 195.14H306.65C307.097 195.138 307.529 194.977 307.868 194.686C308.207 194.395 308.431 193.992 308.5 193.55L313.97 157.73C314.039 157.247 313.915 156.755 313.625 156.363C313.335 155.97 312.902 155.707 312.42 155.63H312.46Z" fill="#EBF1FE"/>
    <path d="M272.92 138.41C272.327 138.41 271.747 138.234 271.253 137.905C270.76 137.575 270.375 137.106 270.148 136.558C269.921 136.01 269.862 135.407 269.978 134.825C270.093 134.243 270.379 133.708 270.799 133.289C271.218 132.869 271.753 132.584 272.335 132.468C272.917 132.352 273.52 132.411 274.068 132.639C274.616 132.866 275.085 133.25 275.414 133.743C275.744 134.237 275.92 134.817 275.92 135.41C275.92 136.206 275.604 136.969 275.041 137.531C274.479 138.094 273.716 138.41 272.92 138.41V138.41ZM272.92 133.15C272.481 133.15 272.052 133.28 271.687 133.524C271.322 133.768 271.037 134.115 270.869 134.521C270.701 134.926 270.657 135.373 270.743 135.803C270.828 136.234 271.04 136.629 271.35 136.94C271.661 137.25 272.056 137.462 272.487 137.547C272.918 137.633 273.364 137.589 273.77 137.421C274.175 137.253 274.522 136.969 274.766 136.604C275.01 136.238 275.14 135.809 275.14 135.37C275.145 135.076 275.092 134.783 274.983 134.51C274.873 134.236 274.71 133.988 274.504 133.778C274.297 133.568 274.05 133.402 273.778 133.289C273.506 133.176 273.214 133.119 272.92 133.12V133.15Z" fill="white"/>
    <path d="M273.97 135.37C273.944 135.632 273.822 135.875 273.627 136.052C273.432 136.229 273.178 136.327 272.915 136.327C272.652 136.327 272.398 136.229 272.203 136.052C272.008 135.875 271.886 135.632 271.86 135.37C271.846 135.223 271.862 135.074 271.909 134.934C271.955 134.794 272.031 134.665 272.13 134.555C272.229 134.446 272.35 134.358 272.486 134.298C272.621 134.238 272.767 134.207 272.915 134.207C273.063 134.207 273.209 134.238 273.344 134.298C273.479 134.358 273.601 134.446 273.7 134.555C273.799 134.665 273.875 134.794 273.921 134.934C273.968 135.074 273.984 135.223 273.97 135.37V135.37Z" fill="white"/>
    <path d="M279.39 135.84C279.384 135.5 279.438 135.161 279.55 134.84C279.662 134.533 279.828 134.249 280.04 134C280.26 133.746 280.529 133.539 280.83 133.39C281.16 133.23 281.523 133.151 281.89 133.16C282.316 133.143 282.738 133.254 283.1 133.48C283.426 133.674 283.684 133.964 283.84 134.31L283.44 134.56C283.359 134.399 283.255 134.251 283.13 134.12C283.01 134.011 282.879 133.914 282.74 133.83C282.599 133.762 282.452 133.708 282.3 133.67C282.154 133.655 282.006 133.655 281.86 133.67C281.569 133.664 281.28 133.729 281.02 133.86C280.787 133.987 280.58 134.157 280.41 134.36C280.243 134.573 280.114 134.813 280.03 135.07C279.95 135.326 279.91 135.592 279.91 135.86C279.909 136.147 279.96 136.431 280.06 136.7C280.154 136.961 280.296 137.202 280.48 137.41C280.649 137.616 280.86 137.783 281.1 137.9C281.343 138.03 281.615 138.095 281.89 138.09C282.042 138.09 282.193 138.07 282.34 138.03C282.5 137.989 282.655 137.929 282.8 137.85C282.948 137.771 283.082 137.669 283.2 137.55C283.333 137.421 283.442 137.268 283.52 137.1L283.95 137.33C283.867 137.526 283.744 137.703 283.59 137.85C283.438 138.002 283.266 138.133 283.08 138.24C282.89 138.342 282.689 138.419 282.48 138.47C282.278 138.529 282.07 138.559 281.86 138.56C281.512 138.565 281.168 138.483 280.86 138.32C280.565 138.162 280.3 137.952 280.08 137.7C279.861 137.442 279.688 137.147 279.57 136.83C279.453 136.513 279.392 136.178 279.39 135.84V135.84Z" fill="white"/>
    <path d="M286.39 138.6C286.125 138.6 285.863 138.546 285.62 138.44C285.391 138.333 285.184 138.184 285.01 138C284.839 137.813 284.704 137.596 284.61 137.36C284.517 137.114 284.47 136.853 284.47 136.59C284.469 136.326 284.52 136.064 284.62 135.82C284.71 135.582 284.846 135.365 285.02 135.18C285.191 134.997 285.394 134.848 285.62 134.74C285.862 134.631 286.125 134.576 286.39 134.58C286.655 134.575 286.919 134.63 287.16 134.74C287.389 134.847 287.596 134.996 287.77 135.18C287.944 135.365 288.08 135.582 288.17 135.82C288.27 136.064 288.321 136.326 288.32 136.59C288.32 136.853 288.273 137.114 288.18 137.36C288.086 137.596 287.951 137.813 287.78 138C287.605 138.183 287.399 138.332 287.17 138.44C286.923 138.545 286.658 138.6 286.39 138.6V138.6ZM284.98 136.6C284.984 137.005 285.133 137.396 285.4 137.7C285.587 137.913 285.838 138.06 286.115 138.12C286.393 138.179 286.682 138.148 286.94 138.03C287.108 137.943 287.26 137.828 287.39 137.69C287.52 137.547 287.622 137.381 287.69 137.2C287.77 137.007 287.811 136.799 287.81 136.59C287.812 136.381 287.771 136.173 287.69 135.98C287.624 135.795 287.522 135.625 287.39 135.48C287.263 135.342 287.11 135.23 286.94 135.15C286.77 135.062 286.581 135.018 286.39 135.02C286.202 135.018 286.016 135.062 285.85 135.15C285.68 135.23 285.527 135.342 285.4 135.48C285.27 135.63 285.168 135.803 285.1 135.99C285.019 136.183 284.978 136.391 284.98 136.6V136.6Z" fill="white"/>
    <path d="M290.81 138.6C290.553 138.602 290.3 138.544 290.07 138.43C289.846 138.324 289.645 138.175 289.48 137.99C289.314 137.801 289.182 137.584 289.09 137.35C289.001 137.107 288.957 136.849 288.96 136.59C288.957 136.328 289.001 136.067 289.09 135.82C289.171 135.582 289.297 135.362 289.46 135.17C289.614 134.989 289.805 134.842 290.02 134.74C290.27 134.622 290.545 134.568 290.821 134.583C291.098 134.599 291.365 134.684 291.6 134.83C291.841 134.993 292.046 135.204 292.2 135.45V133.12H292.7V137.9C292.7 138.04 292.76 138.1 292.88 138.1V138.55C292.82 138.559 292.76 138.559 292.7 138.55C292.586 138.555 292.475 138.515 292.39 138.44C292.348 138.407 292.313 138.364 292.289 138.316C292.265 138.267 292.251 138.214 292.25 138.16V137.78C292.098 138.03 291.885 138.237 291.63 138.38C291.381 138.524 291.098 138.6 290.81 138.6V138.6ZM290.92 138.15C291.057 138.147 291.192 138.12 291.32 138.07C291.463 138.026 291.599 137.958 291.72 137.87C291.841 137.783 291.949 137.678 292.04 137.56C292.122 137.451 292.176 137.324 292.2 137.19V135.99C292.144 135.854 292.07 135.726 291.98 135.61C291.888 135.495 291.781 135.394 291.66 135.31C291.536 135.223 291.402 135.152 291.26 135.1C291.133 135.05 290.997 135.023 290.86 135.02C290.661 135.019 290.465 135.067 290.29 135.16C290.122 135.248 289.973 135.366 289.85 135.51C289.73 135.66 289.635 135.829 289.57 136.01C289.51 136.198 289.48 136.393 289.48 136.59C289.481 136.795 289.518 136.998 289.59 137.19C289.66 137.37 289.761 137.536 289.89 137.68C290.018 137.824 290.175 137.94 290.35 138.02C290.514 138.09 290.691 138.124 290.87 138.12L290.92 138.15Z" fill="white"/>
    <path d="M293.81 133.83V133.12H294.31V133.86L293.81 133.83ZM293.81 138.52V134.64H294.31V138.52H293.81Z" fill="white"/>
    <path d="M298.68 138.52H298.18V136.35C298.206 136.004 298.133 135.657 297.97 135.35C297.902 135.247 297.807 135.165 297.697 135.11C297.586 135.056 297.463 135.032 297.34 135.04C297.189 135.037 297.04 135.064 296.9 135.12C296.748 135.173 296.606 135.25 296.48 135.35C296.354 135.454 296.24 135.571 296.14 135.7C296.042 135.835 295.971 135.988 295.93 136.15V138.52H295.42V134.64H295.88V135.52C296.048 135.232 296.29 134.994 296.579 134.829C296.869 134.664 297.197 134.578 297.53 134.58C297.716 134.577 297.9 134.614 298.07 134.69C298.217 134.771 298.34 134.888 298.43 135.03C298.526 135.193 298.591 135.373 298.62 135.56C298.662 135.788 298.682 136.019 298.68 136.25V138.52Z" fill="white"/>
    <path d="M301.32 138.57C301.064 138.575 300.811 138.52 300.58 138.41C300.363 138.297 300.17 138.145 300.01 137.96C299.845 137.775 299.717 137.562 299.63 137.33C299.546 137.092 299.502 136.842 299.5 136.59C299.499 136.328 299.542 136.067 299.63 135.82C299.712 135.586 299.838 135.369 300 135.18C300.16 134.998 300.354 134.849 300.57 134.74C300.797 134.63 301.047 134.575 301.3 134.58C301.609 134.572 301.912 134.66 302.17 134.83C302.415 134.995 302.625 135.205 302.79 135.45V134.64H303.25V138.54C303.25 138.786 303.196 139.028 303.09 139.25C302.993 139.449 302.853 139.623 302.68 139.76C302.503 139.905 302.299 140.014 302.08 140.08C301.843 140.149 301.597 140.183 301.35 140.18C300.975 140.198 300.602 140.115 300.27 139.94C299.997 139.786 299.766 139.566 299.6 139.3L299.92 139.06C300.059 139.302 300.273 139.491 300.53 139.6C300.786 139.722 301.066 139.783 301.35 139.78C301.53 139.779 301.708 139.752 301.88 139.7C302.043 139.652 302.196 139.574 302.33 139.47C302.456 139.362 302.558 139.23 302.63 139.08C302.705 138.91 302.742 138.726 302.74 138.54V137.77C302.592 138.017 302.381 138.22 302.13 138.36C301.882 138.497 301.603 138.569 301.32 138.57V138.57ZM301.46 138.15C301.61 138.148 301.759 138.121 301.9 138.07C302.038 138.013 302.169 137.939 302.29 137.85C302.402 137.762 302.5 137.657 302.58 137.54C302.654 137.434 302.708 137.315 302.74 137.19V135.99C302.683 135.852 302.609 135.721 302.52 135.6C302.426 135.487 302.319 135.387 302.2 135.3C302.081 135.214 301.949 135.146 301.81 135.1C301.679 135.049 301.54 135.021 301.4 135.02C301.195 135.019 300.993 135.067 300.81 135.16C300.643 135.249 300.497 135.371 300.38 135.52C300.259 135.672 300.167 135.845 300.11 136.03C300.048 136.214 300.014 136.406 300.01 136.6C300.016 137.002 300.165 137.388 300.43 137.69C300.565 137.826 300.72 137.941 300.89 138.03C301.071 138.101 301.266 138.131 301.46 138.12V138.15Z" fill="white"/>
    <defs>
        <linearGradient id="paint0_linear_3_193" x1="48.83" y1="54.56" x2="58.98" y2="54.56" gradientUnits="userSpaceOnUse">
            <stop stop-color="#FF73A4"/>
            <stop offset="1" stop-color="#FF4CB6"/>
        </linearGradient>
        <linearGradient id="paint1_linear_3_193" x1="464.51" y1="210.56" x2="464.51" y2="230.66" gradientUnits="userSpaceOnUse">
            <stop stop-color="#B3B3B3"/>
            <stop offset="1" stop-color="#FEFEFE"/>
        </linearGradient>
    </defs>
</svg>