<svg width="73" height="80" viewBox="0 0 73 80" fill="none" xmlns="http://www.w3.org/2000/svg">
<path d="M54.8 79.41L32.58 29.76L28.42 20.48L23.88 30.14L28.06 39.77L41.71 71.15L32.23 70.97L33.45 68.81L29.27 59.21L18.91 79.55L24 79.54V79.55L51.28 79.44L51.27 79.41H54.8Z" fill="white"/>
<path d="M37.33 19.23L42.88 31.97L47.58 22.63L37.75 0.640015L28.42 20.48L32.58 29.76L37.33 19.23Z" fill="white"/>
<path d="M51.82 32.1L47.05 41.57L63.5 79.41H73L51.82 32.1Z" fill="white"/>
<path d="M20.11 38.14L0.710022 79.41H10.17L24.37 47.94L20.11 38.14Z" fill="white"/>
</svg>
